<?xml version="1.0" standalone="no"?>
<!DOCTYPE svg PUBLIC "-//W3C//DTD SVG 20010904//EN"
 "http://www.w3.org/TR/2001/REC-SVG-20010904/DTD/svg10.dtd">
<svg version="1.0" xmlns="http://www.w3.org/2000/svg"
 width="1600.000000pt" height="1600.000000pt" viewBox="0 0 1600.000000 1600.000000"
 preserveAspectRatio="xMidYMid meet">
<metadata>
Created by potrace 1.11, written by Peter Selinger 2001-2013
</metadata>
<g transform="translate(0.000000,1600.000000) scale(0.100000,-0.100000)"
fill="#000000" stroke="none">
<path d="M3346 14988 c9 -16 45 -66 61 -87 14 -19 61 -81 98 -131 14 -19 48
-64 76 -100 27 -36 53 -70 57 -75 89 -123 188 -253 199 -261 7 -6 13 -14 13
-18 0 -7 104 -147 210 -285 25 -32 54 -71 65 -86 11 -16 63 -85 115 -154 l95
-126 -2 -570 c0 -313 -1 -578 -2 -587 -1 -9 -25 -33 -53 -52 -122 -81 -434
-338 -587 -481 -152 -144 -362 -360 -457 -472 -27 -31 -65 -75 -84 -98 -101
-115 -297 -376 -408 -542 -101 -150 -212 -331 -212 -343 0 -6 -4 -10 -10 -10
-5 0 -10 -4 -10 -8 0 -5 -30 -62 -66 -128 -36 -65 -97 -184 -135 -264 -39 -80
-74 -152 -78 -160 -11 -22 -125 -293 -155 -372 -92 -237 -219 -672 -271 -927
-15 -69 -28 -135 -31 -146 -2 -10 -6 -35 -9 -55 -3 -20 -7 -45 -9 -57 -4 -18
-7 -36 -21 -123 -3 -24 -12 -92 -20 -155 -2 -16 -6 -59 -10 -95 -3 -36 -8 -72
-10 -80 -3 -13 -8 -75 -21 -295 -5 -87 -5 -536 0 -630 5 -79 12 -174 21 -269
3 -27 8 -78 11 -115 3 -36 10 -95 15 -131 5 -36 12 -76 14 -90 2 -14 6 -47 10
-73 12 -99 96 -505 112 -547 3 -8 7 -22 8 -30 2 -20 44 -171 52 -190 3 -8 7
-22 9 -31 14 -70 120 -376 194 -561 83 -207 276 -618 299 -638 3 -3 23 -39 45
-80 93 -179 289 -483 461 -715 49 -66 92 -122 95 -125 3 -3 33 -39 65 -80 230
-291 604 -665 931 -930 11 -9 68 -53 127 -99 59 -45 107 -85 107 -87 0 -4 -50
-71 -88 -119 -5 -5 -102 -136 -217 -290 -115 -154 -215 -287 -222 -295 -26
-31 -113 -151 -113 -155 0 -2 -10 -15 -22 -28 -24 -25 -240 -314 -246 -329 -2
-4 2021 -8 4495 -8 l4498 0 47 58 c25 31 55 66 65 77 10 11 47 56 83 100 35
44 67 82 70 85 4 3 28 32 55 65 56 69 537 648 545 655 3 3 25 30 50 60 25 30
52 64 62 75 9 11 47 56 85 101 96 114 224 266 427 509 l175 210 -690 3 -691 2
80 88 c43 48 92 102 108 121 16 19 35 40 42 47 6 7 12 16 12 20 0 3 8 14 18
23 10 9 36 39 57 66 22 28 42 52 46 55 5 5 164 219 192 260 251 363 443 697
593 1032 25 56 52 117 59 133 47 102 169 429 209 560 65 213 130 455 157 585
20 98 39 200 44 235 2 11 8 48 15 83 6 35 13 78 15 95 2 18 6 48 9 67 3 19 8
58 11 85 3 28 8 64 10 80 8 66 20 204 30 375 6 88 6 560 1 640 -3 30 -7 98
-10 150 -9 129 -30 333 -40 385 -2 11 -7 43 -10 70 -6 48 -14 97 -23 140 -2
11 -6 36 -9 55 -61 403 -263 1061 -452 1470 -16 36 -31 68 -32 72 -2 12 -174
346 -222 433 -222 403 -566 874 -893 1223 -147 157 -276 281 -479 465 -17 15
-74 62 -126 104 -52 43 -97 80 -100 83 -3 3 -66 51 -140 107 -459 342 -983
632 -1510 835 -138 54 -422 151 -475 163 -11 3 -45 12 -75 21 -69 20 -306 81
-340 88 -14 2 -47 10 -75 16 -53 12 -92 19 -245 45 -52 8 -120 20 -150 25 -63
11 -192 26 -295 36 -38 3 -86 7 -105 9 -95 10 -328 19 -525 19 -202 1 -531
-11 -545 -19 -3 -2 -30 -5 -60 -6 l-55 -3 0 679 0 680 -1998 3 c-1599 2 -1997
0 -1991 -10z"/>
</g>
</svg>
